<svg width="36" height="36" viewBox="0 0 36 36" fill="none" xmlns="http://www.w3.org/2000/svg">
<rect width="36" height="36" rx="18" fill="#F7F7F7"/>
<g clip-path="url(#clip0_90_3005)">
<path d="M18.5 18.0001C18.5 16.159 19.955 14.6667 21.75 14.6667C23.545 14.6667 25 16.159 25 18.0001C25 19.8411 23.545 21.3334 21.75 21.3334C19.955 21.3334 18.5 19.8411 18.5 18.0001Z" fill="#1ABCFE"/>
<path d="M12 24.6666C12 22.8255 13.455 21.3333 15.25 21.3333H18.5V24.6666C18.5 26.5076 17.045 27.9999 15.25 27.9999C13.455 27.9999 12 26.5076 12 24.6666Z" fill="#0ACF83"/>
<path d="M18.5 8V14.6667H21.75C23.545 14.6667 25 13.1744 25 11.3333C25 9.49228 23.545 8 21.75 8H18.5Z" fill="#FF7262"/>
<path d="M12 11.3333C12 13.1744 13.455 14.6667 15.25 14.6667H18.5V8H15.25C13.455 8 12 9.49228 12 11.3333Z" fill="#F24E1E"/>
<path d="M12 18.0001C12 19.8411 13.455 21.3334 15.25 21.3334H18.5V14.6667H15.25C13.455 14.6667 12 16.159 12 18.0001Z" fill="#A259FF"/>
</g>
<defs>
<clipPath id="clip0_90_3005">
<rect width="13" height="20" fill="white" transform="translate(12 8)"/>
</clipPath>
</defs>
</svg>
