<svg width="112" height="28" viewBox="0 0 112 28" fill="none" xmlns="http://www.w3.org/2000/svg">
<path d="M38.9176 21V3.54545H49.7415V5.8125H41.5511V11.1307H48.9659V13.3892H41.5511V21H38.9176ZM54.8439 3.54545V21H52.2956V3.54545H54.8439ZM61.6018 21.2898C60.7722 21.2898 60.0222 21.1364 59.3518 20.8295C58.6813 20.517 58.1501 20.0653 57.758 19.4744C57.3717 18.8835 57.1785 18.1591 57.1785 17.3011C57.1785 16.5625 57.3205 15.9545 57.6046 15.4773C57.8887 15 58.2722 14.6222 58.7552 14.3438C59.2382 14.0653 59.7779 13.8551 60.3745 13.7131C60.9711 13.571 61.5791 13.4631 62.1984 13.3892C62.9825 13.2983 63.6188 13.2244 64.1075 13.1676C64.5961 13.1051 64.9512 13.0057 65.1728 12.8693C65.3944 12.733 65.5052 12.5114 65.5052 12.2045V12.1449C65.5052 11.4006 65.295 10.8239 64.8745 10.4148C64.4597 10.0057 63.8404 9.80114 63.0166 9.80114C62.1586 9.80114 61.4825 9.99148 60.9882 10.3722C60.4995 10.7472 60.1614 11.1648 59.9739 11.625L57.5791 11.0795C57.8632 10.2841 58.2779 9.64205 58.8234 9.15341C59.3745 8.65909 60.008 8.30114 60.7239 8.07954C61.4399 7.85227 62.1927 7.73864 62.9825 7.73864C63.5052 7.73864 64.0592 7.80114 64.6444 7.92614C65.2353 8.04545 65.7864 8.26705 66.2978 8.59091C66.8149 8.91477 67.2382 9.37784 67.5677 9.98011C67.8972 10.5767 68.062 11.3523 68.062 12.3068V21H65.5734V19.2102H65.4711C65.3063 19.5398 65.0592 19.8636 64.7296 20.1818C64.4001 20.5 63.9768 20.7642 63.4597 20.9744C62.9427 21.1847 62.3234 21.2898 61.6018 21.2898ZM62.1558 19.2443C62.8603 19.2443 63.4626 19.1051 63.9626 18.8267C64.4683 18.5483 64.8518 18.1847 65.1132 17.7358C65.3802 17.2812 65.5137 16.7955 65.5137 16.2784V14.5909C65.4228 14.6818 65.2467 14.767 64.9853 14.8466C64.7296 14.9205 64.437 14.9858 64.1075 15.0426C63.7779 15.0937 63.4569 15.142 63.1444 15.1875C62.8319 15.2273 62.5705 15.2614 62.3603 15.2898C61.866 15.3523 61.4143 15.4574 61.0052 15.6051C60.6018 15.7528 60.2779 15.9659 60.0336 16.2443C59.795 16.517 59.6757 16.8807 59.6757 17.3352C59.6757 17.9659 59.9086 18.4432 60.3745 18.767C60.8404 19.0852 61.4342 19.2443 62.1558 19.2443ZM76.4648 26.1818C75.4251 26.1818 74.5302 26.0455 73.7802 25.7727C73.0359 25.5 72.4279 25.1392 71.9563 24.6903C71.4847 24.2415 71.1324 23.75 70.8995 23.2159L73.0898 22.3125C73.2432 22.5625 73.4478 22.8267 73.7035 23.1051C73.9648 23.3892 74.3171 23.6307 74.7603 23.8295C75.2091 24.0284 75.7859 24.1278 76.4904 24.1278C77.4563 24.1278 78.2546 23.892 78.8853 23.4205C79.516 22.9545 79.8313 22.2102 79.8313 21.1875V18.6136H79.6694C79.516 18.892 79.2944 19.2017 79.0046 19.5426C78.7205 19.8835 78.3285 20.179 77.8285 20.429C77.3285 20.679 76.6779 20.804 75.8768 20.804C74.8427 20.804 73.9109 20.5625 73.0813 20.0795C72.2574 19.5909 71.604 18.8722 71.1211 17.9233C70.6438 16.9687 70.4052 15.7955 70.4052 14.4034C70.4052 13.0114 70.641 11.8182 71.1126 10.8239C71.5898 9.82955 72.2432 9.06818 73.0728 8.53977C73.9023 8.00568 74.8427 7.73864 75.8938 7.73864C76.7063 7.73864 77.3626 7.875 77.8626 8.14773C78.3626 8.41477 78.7518 8.72727 79.0302 9.08523C79.3143 9.44318 79.533 9.75852 79.6864 10.0312H79.8739V7.90909H82.3711V21.2898C82.3711 22.4148 82.1097 23.3381 81.587 24.0597C81.0643 24.7813 80.3569 25.3153 79.4648 25.6619C78.5785 26.0085 77.5785 26.1818 76.4648 26.1818ZM76.4393 18.6903C77.1722 18.6903 77.7915 18.5199 78.2972 18.179C78.8086 17.8324 79.1949 17.3381 79.4563 16.696C79.7234 16.0483 79.8569 15.2727 79.8569 14.3693C79.8569 13.4886 79.7262 12.7131 79.4648 12.0426C79.2035 11.3722 78.8199 10.8494 78.3143 10.4744C77.8086 10.0937 77.1836 9.90341 76.4393 9.90341C75.6722 9.90341 75.033 10.1023 74.5216 10.5C74.0103 10.892 73.6239 11.4261 73.3626 12.1023C73.1069 12.7784 72.979 13.5341 72.979 14.3693C72.979 15.2273 73.1097 15.9801 73.3711 16.6278C73.6324 17.2756 74.0188 17.7812 74.5302 18.1449C75.0472 18.5085 75.6836 18.6903 76.4393 18.6903ZM85.3087 21V7.90909H87.857V21H85.3087ZM86.5956 5.8892C86.1524 5.8892 85.7718 5.74148 85.4536 5.44602C85.1411 5.14489 84.9848 4.78693 84.9848 4.37216C84.9848 3.9517 85.1411 3.59375 85.4536 3.29829C85.7718 2.99716 86.1524 2.84659 86.5956 2.84659C87.0388 2.84659 87.4166 2.99716 87.7291 3.29829C88.0473 3.59375 88.2064 3.9517 88.2064 4.37216C88.2064 4.78693 88.0473 5.14489 87.7291 5.44602C87.4166 5.74148 87.0388 5.8892 86.5956 5.8892ZM97.0354 7.90909V9.95455H89.6376V7.90909H97.0354ZM91.666 21V6.39204C91.666 5.57386 91.845 4.89489 92.203 4.35511C92.5609 3.80966 93.0354 3.40341 93.6263 3.13636C94.2172 2.86364 94.8592 2.72727 95.5524 2.72727C96.0638 2.72727 96.5013 2.76989 96.8649 2.85511C97.2285 2.93466 97.4984 3.00852 97.6746 3.0767L97.078 5.1392C96.9587 5.10511 96.8053 5.06534 96.6178 5.01989C96.4303 4.96875 96.203 4.94318 95.9359 4.94318C95.3166 4.94318 94.8734 5.09659 94.6064 5.40341C94.345 5.71023 94.2143 6.15341 94.2143 6.73295V21H91.666ZM100.795 25.9091C100.415 25.9091 100.068 25.8778 99.7557 25.8153C99.4432 25.7585 99.2102 25.696 99.0568 25.6278L99.6704 23.5398C100.136 23.6648 100.551 23.7188 100.915 23.7017C101.278 23.6847 101.599 23.5483 101.878 23.2926C102.162 23.0369 102.412 22.6193 102.628 22.0398L102.943 21.1705L98.1534 7.90909H100.881L104.196 18.0682H104.332L107.648 7.90909H110.383L104.989 22.7472C104.739 23.429 104.42 24.0057 104.034 24.4773C103.648 24.9545 103.187 25.3125 102.653 25.5511C102.119 25.7898 101.5 25.9091 100.795 25.9091Z" fill="#1A1A1A"/>
<g clip-path="url(#clip0_31_7301)">
<path d="M6.264 0H0V19.6304H6.264V0Z" fill="#1A1A1A"/>
<path d="M9.04785 13.9724C9.04785 10.8781 11.5974 8.36963 14.7424 8.36963C15.0569 8.36963 15.3119 8.62049 15.3119 8.92993V21.837C15.3119 25.2408 12.5074 28.0001 9.04785 28.0001V13.9724Z" fill="#1A1A1A"/>
<path d="M0 4.29153e-05L0 6.16309L19.952 6.16309V4.29153e-05L0 4.29153e-05Z" fill="#1A1A1A"/>
<path d="M9.04785 14.5327C9.04785 11.1289 11.8523 8.36963 15.3119 8.36963H28.9999C28.9999 11.7734 26.1954 14.5327 22.7359 14.5327H9.04785Z" fill="#1A1A1A"/>
</g>
<defs>
<clipPath id="clip0_31_7301">
<rect width="29" height="28" fill="white"/>
</clipPath>
</defs>
</svg>
